# xmcd
#
# Track frame offsets:
#	150
#	13156
#	28926
#	42692
#	58775
#	74374
#	88771
#	102989
#	120841
#	139226
#
# Disc length: 2068 seconds
# Revision: 0
# Processed by: cddbd v1.5.2PL0 Copyright (c) Steve Scherf et al.
# Submitted via: dBpowerAMP V12.0
#
DISCID=9008120a
DTITLE=Various Artist - Ricochet
DYEAR=2018
DGENRE=Bluegrass
TTITLE0=Kristy Cox - South to North Carolina
TTITLE1=Kristy Cox - Cry Me a River
TTITLE2=Kristy Cox - Just Me Leaving
TTITLE3=Kristy Cox feat. Brandon Rickman - A Bed This Cold
TTITLE4=Kristy Cox - Ricochet
TTITLE5=Kristy Cox - Right Where You Left It
TTITLE6=Kristy Cox - I Can Almost Smell the Smoke
TTITLE7=Kristy Cox - Sweet English Rose
TTITLE8=Kristy Cox - Blame It on God
TTITLE9=Kristy Cox feat. Josh Swift, Jerry Salley and Donna Ulisse - I Still Pray
EXTD=
EXTT0=
EXTT1=
EXTT2=
EXTT3=
EXTT4=
EXTT5=
EXTT6=
EXTT7=
EXTT8=
EXTT9=
PLAYORDER=
